<svg width="40" height="40" viewBox="0 0 40 40" fill="none" xmlns="http://www.w3.org/2000/svg">
<rect width="40" height="40" rx="10" fill="#F8F8F7"/>
<path fill-rule="evenodd" clip-rule="evenodd" d="M14.8047 29.319V10H16.1381V29.319L19 26.1995L19.9428 27.2272L15.9428 31.5872C15.8178 31.7234 15.6482 31.8 15.4714 31.8C15.2946 31.8 15.125 31.7234 15 31.5872L11 27.2272L11.9428 26.1995L14.8047 29.319ZM26.1381 11.4533C25.0335 11.4533 24.1381 12.4294 24.1381 13.6333V15.8133H28.1381V13.6333C28.1381 12.4294 27.2426 11.4533 26.1381 11.4533ZM28.1381 17.2667V20.1733H29.4714V13.6333C29.4714 11.6267 27.979 10 26.1381 10C24.2971 10 22.8047 11.6267 22.8047 13.6333V20.1733H24.1381V17.2667H28.1381ZM22.8047 21.6267H26.8047C28.2775 21.6267 29.4714 22.928 29.4714 24.5333C29.4714 25.4015 29.1222 26.1807 28.5686 26.7133C29.1222 27.2459 29.4714 28.0252 29.4714 28.8933C29.4714 30.4986 28.2775 31.8 26.8047 31.8H22.8047V21.6267ZM26.8047 25.9867C27.5411 25.9867 28.1381 25.336 28.1381 24.5333C28.1381 23.7307 27.5411 23.08 26.8047 23.08H24.1381V25.9867H26.8047ZM24.1381 27.44H26.8047C27.5411 27.44 28.1381 28.0907 28.1381 28.8933C28.1381 29.696 27.5411 30.3467 26.8047 30.3467H24.1381V27.44Z" fill="#8C8C8C"/>
</svg>
